<?xml version="1.0" encoding="UTF-8" standalone="no"?>
<!-- Created with Inkscape (http://www.inkscape.org/) -->

<svg
   xmlns:dc="http://purl.org/dc/elements/1.1/"
   xmlns:cc="http://creativecommons.org/ns#"
   xmlns:rdf="http://www.w3.org/1999/02/22-rdf-syntax-ns#"
   xmlns:svg="http://www.w3.org/2000/svg"
   xmlns="http://www.w3.org/2000/svg"
   xmlns:sodipodi="http://sodipodi.sourceforge.net/DTD/sodipodi-0.dtd"
   xmlns:inkscape="http://www.inkscape.org/namespaces/inkscape"
   width="500"
   height="500"
   viewBox="0 0 500.00001 500.00001"
   id="svg2"
   version="1.1"
   inkscape:version="0.91 r13725"
   sodipodi:docname="logo3.svg">
  <defs
     id="defs4">
    <radialGradient
       gradientUnits="userSpaceOnUse"
       gradientTransform="matrix(-0.61775,1.5543,-0.98325,-0.39078,714.46,-5.3753)"
       r="17.4"
       cy="227.3"
       cx="201.62"
       id="q">
      <stop
         id="stop3552"
         offset="0"
         stop-color="#fff" />
      <stop
         id="stop3554"
         offset="1"
         stop-opacity="0"
         stop-color="#fff" />
    </radialGradient>
    <filter
       color-interpolation-filters="sRGB"
       height="1.168"
       width="1.42"
       y="-.084"
       x="-.21"
       id="k">
      <feGaussianBlur
         id="feGaussianBlur3557"
         stdDeviation="3.6303471" />
    </filter>
    <radialGradient
       gradientUnits="userSpaceOnUse"
       gradientTransform="matrix(-0.63335,0.86587,-0.68224,-0.49903,875.73,-14.082)"
       r="40.588"
       cy="264.3"
       cx="446.47"
       id="r">
      <stop
         id="stop3560"
         offset="0"
         stop-color="#d1d1d1" />
      <stop
         id="stop3562"
         offset="1"
         stop-opacity="0"
         stop-color="#fff" />
    </radialGradient>
    <filter
       color-interpolation-filters="sRGB"
       height="1.2121"
       width="1.2763"
       y="-.10606"
       x="-.13816"
       id="l">
      <feGaussianBlur
         id="feGaussianBlur3565"
         stdDeviation="5.1138556" />
    </filter>
    <radialGradient
       gradientUnits="userSpaceOnUse"
       gradientTransform="matrix(-1.4655,-0.70766,0.88048,-1.8234,830.95,805.21)"
       r="8.1798"
       cy="186.73"
       cx="401.9"
       id="s">
      <stop
         id="stop3568"
         offset="0"
         stop-color="#ccc" />
      <stop
         id="stop3570"
         offset="1"
         stop-opacity="0"
         stop-color="#ccc" />
    </radialGradient>
    <filter
       color-interpolation-filters="sRGB"
       height="1.4726"
       width="1.3898"
       y="-.23629"
       x="-.19489"
       id="m">
      <feGaussianBlur
         id="feGaussianBlur3573"
         stdDeviation="1.207115" />
    </filter>
    <radialGradient
       gradientUnits="userSpaceOnUse"
       gradientTransform="matrix(-1.0708,0.079913,-0.013566,-0.18178,891.27,174.06)"
       r="20.33"
       cy="182.66"
       cx="432.21"
       id="t">
      <stop
         id="stop3576"
         offset="0"
         stop-color="#ccc" />
      <stop
         id="stop3578"
         offset="1"
         stop-opacity="0"
         stop-color="#ccc" />
    </radialGradient>
    <filter
       color-interpolation-filters="sRGB"
       height="1.6902"
       width="1.1115"
       y="-.34508"
       x="-.055755"
       id="n">
      <feGaussianBlur
         id="feGaussianBlur3581"
         stdDeviation="0.92176232" />
    </filter>
    <filter
       color-interpolation-filters="sRGB"
       height="1.1499"
       width="1.1384"
       y="-.074946"
       x="-.069221"
       id="o">
      <feGaussianBlur
         id="feGaussianBlur3584"
         stdDeviation="2.3412691" />
    </filter>
    <filter
       color-interpolation-filters="sRGB"
       height="1.1782"
       width="1.1208"
       y="-.089094"
       x="-.06041"
       id="p">
      <feGaussianBlur
         id="feGaussianBlur3587"
         stdDeviation="3.572013" />
    </filter>
  </defs>
  <sodipodi:namedview
     id="base"
     pagecolor="#ffffff"
     bordercolor="#666666"
     borderopacity="1.0"
     inkscape:pageopacity="0.0"
     inkscape:pageshadow="2"
     inkscape:zoom="1"
     inkscape:cx="184.1412"
     inkscape:cy="250"
     inkscape:document-units="px"
     inkscape:current-layer="layer1"
     showgrid="false"
     units="px"
     inkscape:showpageshadow="false"
     showborder="true"
     inkscape:window-width="1920"
     inkscape:window-height="1151"
     inkscape:window-x="0"
     inkscape:window-y="1"
     inkscape:window-maximized="1" />
  <metadata
     id="metadata7">
    <rdf:RDF>
      <cc:Work
         rdf:about="">
        <dc:format>image/svg+xml</dc:format>
        <dc:type
           rdf:resource="http://purl.org/dc/dcmitype/StillImage" />
        <dc:title></dc:title>
      </cc:Work>
    </rdf:RDF>
  </metadata>
  <g
     inkscape:label="Layer 1"
     inkscape:groupmode="layer"
     id="layer1"
     transform="translate(0,-552.36216)">
    <text
       xml:space="preserve"
       style="font-style:normal;font-variant:normal;font-weight:normal;font-stretch:normal;font-size:120.74956512px;line-height:125%;font-family:'Songti TC';-inkscape-font-specification:'Songti TC, Normal';text-align:start;letter-spacing:0px;word-spacing:0px;writing-mode:lr-tb;text-anchor:start;fill:#000000;fill-opacity:1;stroke:none;stroke-width:1px;stroke-linecap:butt;stroke-linejoin:miter;stroke-opacity:1"
       x="111.92655"
       y="815.47888"
       id="text3336"
       sodipodi:linespacing="125%"><tspan
         sodipodi:role="line"
         id="tspan3338"
         x="111.92655"
         y="815.47888">joyful<tspan
   style="fill:#800080"
   id="tspan3344" /></tspan></text>
    <text
       xml:space="preserve"
       style="font-style:normal;font-variant:normal;font-weight:normal;font-stretch:normal;font-size:120.92416382px;line-height:100%;font-family:'Shree Devanagari 714';-inkscape-font-specification:'Shree Devanagari 714, Normal';text-align:start;letter-spacing:0px;word-spacing:0px;writing-mode:lr-tb;text-anchor:start;fill:#5a2ca0;fill-opacity:1;stroke:none;stroke-width:1px;stroke-linecap:butt;stroke-linejoin:miter;stroke-opacity:1"
       x="109.55053"
       y="921.61676"
       id="text3340"
       sodipodi:linespacing="100%"
       transform="scale(1.0413302,0.96031019)"><tspan
         sodipodi:role="line"
         id="tspan3342"
         x="109.55053"
         y="921.61676"
         style="font-style:normal;font-variant:normal;font-weight:normal;font-stretch:normal;font-size:52.90432739px;line-height:100%;font-family:'Shree Devanagari 714';-inkscape-font-specification:'Shree Devanagari 714, Normal';text-align:start;writing-mode:lr-tb;text-anchor:start;fill:#5a2ca0">WORKOUT</tspan></text>
    <g
       id="g3589"
       transform="matrix(0.26564412,0,0,0.26564412,44.02337,724.23004)">
      <g
         id="g3591"
         transform="matrix(1.471,0,0,1.471,-160.21,-149.44)">
        <path
           id="path3593"
           d="m 502.6,245.85 c 0,19.727 -8.3818,43.587 -21.933,56.515 -13.5512,12.928 -32.273,14.924 -52.952,14.924 -20.679,0 -39.4,-1.9961 -52.952,-14.924 -13.552,-12.9279 -21.933,-36.788 -21.933,-56.515 0,-39.455 33.527,-71.44 74.885,-71.44 41.358,0 74.885,31.985 74.885,71.44 z"
           inkscape:connector-curvature="0" />
        <path
           id="path3595"
           d="m 367.92,203.57 c 0,0 4.5942,-3.6753 3.2159,-7.3507 -1.3782,-3.6754 -10.533,-14.237 -16.08,-28.943 -5.547,-14.706 -6.4319,-37.672 -4.1348,-46.401 2.2971,-8.7289 9.6478,-19.296 23.89,-24.349 14.242,-5.0536 39.527,-7.9925 53.769,-8.4519 14.242,-0.45942 48.681,3.8578 56.492,7.5331 7.8101,3.6753 21.581,11.784 23.43,23.43 2.3907,15.053 0.63676,29.17 -2.7565,39.51 -2.4013,7.3173 -9.1884,22.511 -11.945,25.727 -2.7565,3.2159 -6.8913,7.3507 -6.4318,13.323 0.45942,5.9724 6.8913,13.783 7.8101,17.917 0.91884,4.1348 -43.185,-19.755 -44.104,-24.349 -0.91883,-4.5942 -3.6753,-12.864 -3.6753,-12.864 0,0 11.945,2.2971 17.458,0.91884 5.513,-1.3783 10.567,-5.513 12.864,-11.485 2.2971,-5.9724 8.7632,-15.555 8.8674,-28.96 0.043,-5.532 -3.0943,-11.148 -9.0668,-13.904 -5.9724,-2.7565 -29.234,-10.992 -45.314,-10.992 -16.08,0 -48.667,8.3738 -53.721,13.427 -5.0536,5.0536 -7.6716,11.442 -5.3745,19.252 2.2971,7.81 8.2816,24.646 11.347,28.068 2.3799,2.6568 4.628,5.817 9.565,6.393 6.4534,0.75285 20.297,-4.5553 23.054,-3.6365 2.7565,0.91884 13.783,13.783 -2.7565,20.674 -16.5395,6.891 -43.185,14.701 -44.104,11.026 -0.91883,-3.6753 -2.2971,-5.513 -2.2971,-5.513 z"
           inkscape:connector-curvature="0"
           style="fill-rule:evenodd;stroke:#000000;stroke-width:1px" />
        <path
           id="path3597"
           d="m 357.96,240.04 c 5.0735,-14.093 28.186,-20.858 32.132,-24.24 3.946,-3.3823 -9.5832,-31.568 -13.529,-31.568 -3.946,0 -10.711,15.784 -11.838,18.039 -1.1274,2.2549 -15.784,40.588 -15.784,45.098 0,4.5098 8.0049,-16.06 24.804,-30.441 16.799,-14.381 -16.655,25.82 -15.784,23.113 z"
           inkscape:connector-curvature="0"
           style="fill:url(#q);fill-rule:evenodd;filter:url(#k)" />
        <ellipse
           id="ellipse3599"
           ry="37.487"
           rx="40.588001"
           cy="240.32001"
           cx="413.76999"
           transform="matrix(1.0612,0,0,1.0884,-28.135,-17.587)"
           style="opacity:0.7770004;fill:url(#r);filter:url(#o)" />
        <path
           id="path3601"
           d="m 434.63,222.57 c 0,0 -0.56372,-23.113 9.5832,-20.858 10.147,2.2549 31.568,16.348 33.26,26.495 1.6912,10.147 -17.475,49.607 -17.475,59.754 0,10.147 16.912,11.274 24.24,-2.8186 7.328,-14.0926 13.529,-45.098 10.711,-52.426 -2.8186,-7.3284 -19.73,-27.622 -27.622,-31.568 -7.8921,-3.946 -30.441,-25.931 -46.225,-20.294 -15.784,5.637 -18.039,46.225 -9.0195,49.044 9.0195,2.8186 20.858,-5.0735 22.549,-7.3284 z"
           inkscape:connector-curvature="0"
           style="opacity:0.28200001;fill:#cccccc;fill-rule:evenodd;filter:url(#l)" />
        <path
           id="path3603"
           d="m 402.5,179.16 c 0,0 -3.1952,0.43817 -4.2522,1.9884 -1.057,1.5502 0.0243,4.2125 0.30617,5.9037 0.56372,3.3823 6.7646,1.6912 6.7646,1.6912 l 11.402,-9.9249 -0.49928,-2.5631 c -4.0788,0.29579 -8.8347,1.2267 -13.721,2.9047 z"
           inkscape:connector-curvature="0"
           style="opacity:0.6520004;fill:url(#s);fill-rule:evenodd;filter:url(#m)" />
        <path
           id="path3605"
           d="m 411.35,179.94 c 0,0 5.1988,-1.6246 14.297,-1.6246 9.0979,0 15.271,2.9243 16.896,0.64985 1.6246,-2.2745 -3.2492,-4.8738 -9.0978,-4.8738 -5.8486,0 -16.571,0 -20.47,0.64984 -3.8991,0.64985 -10.398,2.2745 -9.7477,4.5489 0.6503,2.2744 8.1231,0.64985 8.1231,0.64985 z"
           inkscape:connector-curvature="0"
           style="opacity:0.6520004;fill:url(#t);fill-rule:evenodd;filter:url(#n)" />
        <path
           id="path3607"
           d="m 374.96,188.72 c 0,0 -1.2997,-4.5489 3.2492,-4.5489 4.5489,0 10.398,-0.64984 10.398,-0.64984 0,0 -14.297,-7.7982 -15.596,-13.647 -1.2997,-5.8486 -8.448,-19.495 -8.448,-29.243 0,-9.7477 3.2492,-20.145 10.398,-22.745 7.1483,-2.5994 29.243,-11.697 48.089,-12.347 18.846,-0.64985 61.086,7.1483 65.634,12.347 4.5489,5.1988 7.1483,18.196 5.1988,25.344 -1.9495,7.148 -9.0978,33.142 -14.946,36.391 -5.8486,3.2492 -3.2492,7.7982 -3.2492,7.7982 0,0 14.297,-12.997 16.246,-20.145 1.949,-7.148 7.1483,-18.196 7.7982,-26.644 0.64985,-8.448 -1.2997,-22.095 -6.4985,-25.344 -5.1988,-3.2492 -29.893,-18.196 -44.19,-18.846 -14.297,-0.64985 -61.735,1.9495 -68.884,5.8486 -7.1483,3.8991 -21.445,11.697 -22.095,19.495 -0.64985,7.7982 1.2997,29.893 4.5489,36.391 3.2492,6.4985 12.347,30.543 12.347,30.543 z"
           inkscape:connector-curvature="0"
           style="opacity:0.875;fill:#808080;fill-rule:evenodd;stroke:#000000;stroke-width:1px;filter:url(#p)" />
      </g>
    </g>
  </g>
</svg>
