<?xml version="1.0" encoding="UTF-8" standalone="no"?>
<!-- Created with Inkscape (http://www.inkscape.org/) -->

<svg
   xmlns:dc="http://purl.org/dc/elements/1.1/"
   xmlns:cc="http://creativecommons.org/ns#"
   xmlns:rdf="http://www.w3.org/1999/02/22-rdf-syntax-ns#"
   xmlns:svg="http://www.w3.org/2000/svg"
   xmlns="http://www.w3.org/2000/svg"
   xmlns:sodipodi="http://sodipodi.sourceforge.net/DTD/sodipodi-0.dtd"
   xmlns:inkscape="http://www.inkscape.org/namespaces/inkscape"
   width="500"
   height="500"
   viewBox="0 0 500.00001 500.00001"
   id="svg2"
   version="1.1"
   inkscape:version="0.91 r13725"
   sodipodi:docname="logo1.svg">
  <defs
     id="defs4" />
  <sodipodi:namedview
     id="base"
     pagecolor="#ffffff"
     bordercolor="#666666"
     borderopacity="1.0"
     inkscape:pageopacity="0.0"
     inkscape:pageshadow="2"
     inkscape:zoom="1.898"
     inkscape:cx="248.13371"
     inkscape:cy="250"
     inkscape:document-units="px"
     inkscape:current-layer="layer1"
     showgrid="false"
     units="px"
     inkscape:showpageshadow="false"
     showborder="true"
     inkscape:window-width="1920"
     inkscape:window-height="1151"
     inkscape:window-x="0"
     inkscape:window-y="1"
     inkscape:window-maximized="1" />
  <metadata
     id="metadata7">
    <rdf:RDF>
      <cc:Work
         rdf:about="">
        <dc:format>image/svg+xml</dc:format>
        <dc:type
           rdf:resource="http://purl.org/dc/dcmitype/StillImage" />
        <dc:title />
      </cc:Work>
    </rdf:RDF>
  </metadata>
  <g
     inkscape:label="Layer 1"
     inkscape:groupmode="layer"
     id="layer1"
     transform="translate(0,-552.36216)">
    <text
       xml:space="preserve"
       style="font-style:normal;font-variant:normal;font-weight:normal;font-stretch:normal;font-size:76.30576324px;line-height:125%;font-family:'Songti TC';-inkscape-font-specification:'Songti TC, Normal';text-align:start;letter-spacing:0px;word-spacing:0px;writing-mode:lr-tb;text-anchor:start;fill:#000000;fill-opacity:1;stroke:none;stroke-width:1px;stroke-linecap:butt;stroke-linejoin:miter;stroke-opacity:1"
       x="169.19914"
       y="788.06165"
       id="text3336"
       sodipodi:linespacing="125%"><tspan
         sodipodi:role="line"
         id="tspan3338"
         x="169.19914"
         y="788.06165">joyful<tspan
   style="fill:#800080"
   id="tspan3344">.se</tspan></tspan></text>
    <text
       xml:space="preserve"
       style="font-style:normal;font-variant:normal;font-weight:normal;font-stretch:normal;font-size:73.27873993px;line-height:100%;font-family:'Shree Devanagari 714';-inkscape-font-specification:'Shree Devanagari 714, Normal';text-align:start;letter-spacing:0px;word-spacing:0px;writing-mode:lr-tb;text-anchor:start;fill:#666666;fill-opacity:1;stroke:none;stroke-width:1px;stroke-linecap:butt;stroke-linejoin:miter;stroke-opacity:1"
       x="243.92236"
       y="850.92999"
       id="text3340"
       sodipodi:linespacing="100%"
       transform="scale(1.0413302,0.96031019)"><tspan
         sodipodi:role="line"
         id="tspan3342"
         x="243.92236"
         y="850.92999"
         style="font-style:normal;font-variant:normal;font-weight:normal;font-stretch:normal;font-size:32.05945206px;line-height:100%;font-family:'Shree Devanagari 714';-inkscape-font-specification:'Shree Devanagari 714, Normal';text-align:start;writing-mode:lr-tb;text-anchor:start;fill:#666666">WORKOUT</tspan></text>
    <path
       id="path3396"
       d="m 137.46061,719.84607 c 0.24406,-0.26522 1.16246,-0.58263 1.30407,0.87121 0.0298,0.37061 0.0862,0.73957 0.19484,1.09603 0.20229,-0.0734 0.40708,-0.14422 0.60938,-0.22214 1.19516,0.44541 1.6042,3.76151 1.81219,5.08351 0.0746,0.0847 0.16253,0.15413 0.24955,0.22792 0.0754,-0.99075 -0.12685,-1.97138 -0.14269,-2.95799 -0.0593,-0.51257 0.85077,-0.98217 1.23438,0.063 0.72065,2.09463 0.5201,3.22869 1.08852,4.63758 0.48981,1.26444 -0.32723,4.15817 -0.98323,5.5062 -0.94179,1.76513 -2.12476,27.12079 -2.52025,28.92559 -0.28762,0.7958 -0.90443,1.45664 -1.04539,2.3113 -0.2682,1.77888 -4.47175,16.03278 -4.63174,16.51259 -3.24937,9.07016 -3.97458,10.04066 3.39147,17.20972 0.87093,0.85621 2.31731,1.03423 4.01076,3.2854 0.56016,0.70072 1.35973,0.86098 1.46326,0.93268 0.9125,1.26351 1.27593,0.98826 1.92243,1.89346 0.41121,0.63419 1.06444,1.04622 1.64641,1.50621 0.10606,0.10454 1.92439,3.0455 5.71849,5.23035 2.8759,1.90772 3.77725,1.37251 4.89039,2.07406 0.35485,0.24632 0.80329,0.10702 1.20459,0.14689 6.42468,-0.30045 24.1515,5.02823 34.316,12.90006 0.10358,0.0744 15.47217,11.61345 16.83839,12.58975 9.73869,6.41325 7.97191,0.14574 30.81717,14.94582 0.10397,0.0578 2.62975,1.42419 3.86649,2.42816 3.07045,2.56712 2.00518,0.47291 6.26903,4.17738 0.19651,0.19651 0.49075,0.0826 0.73618,0.14498 0.6433,0.20397 1.23612,0.53633 1.87859,0.74619 0.2752,0.18982 0.34904,0.55793 0.52642,0.83059 0.41867,0.0651 0.76855,0.31927 1.16145,0.4635 1.25679,0.47569 0.47719,0.78235 2.06754,0.80003 0.3747,-0.3764 0.64662,-0.83814 1.01304,-1.22116 2.33499,-2.18597 4.89276,-0.35831 2.90404,2.32122 0.84425,0.80612 2.2957,0.35254 3.88551,1.88933 2.80569,2.76819 6.38828,0.63676 8.01731,4.65906 1.16662,3.1359 -0.8518,6.07612 -2.99433,8.65243 -0.38721,0.45669 -0.15566,0.76954 -2.03775,1.53949 -0.23292,0.0919 -0.37636,-0.14766 -0.49406,-0.29767 -3.86981,0.3049 -3.04013,-2.90592 -4.71705,-3.31362 -0.23321,0.60102 -1.24231,2.86387 -2.09329,2.94218 0.0853,0.0786 0.17168,0.16177 0.25701,0.24879 -0.16329,0.10607 -0.32496,0.21389 -0.48496,0.32413 0.0538,0.48023 0.12476,0.27287 -0.9849,1.90173 -0.12437,-0.0381 -0.2387,-0.0744 -0.35072,-0.12438 0.024,0.15738 0.0456,0.31751 0.0689,0.47993 -0.0414,0.0248 -0.12438,0.0734 -0.16577,0.0992 -0.16006,0.27689 -0.34243,0.54139 -0.53304,0.79835 l -3.90384,0 c -0.0382,-0.16673 -0.0704,-0.33321 -0.0971,-0.49904 -1.39693,-0.82968 -2.09204,-2.2987 -2.23416,-3.09209 -0.7766,-2.88214 -2.3897,-2.96026 -2.87827,-3.24564 -0.27966,-0.15929 -1.50721,-1.42572 -0.73204,0.88051 -0.0878,-0.19405 -0.16825,-0.3888 -0.24294,-0.58448 -0.2056,0.0433 -0.47254,0.0279 -0.5861,0.24053 0.0372,0.64988 0.55797,1.16721 0.57039,1.82878 0.041,0.80839 -0.74942,0.61362 -1.01222,0.0475 -0.21636,-0.36565 -0.2446,-0.81241 -0.4775,-1.16566 -0.30397,-0.10225 -2.20572,-0.22173 -1.63151,-2.15207 0.41544,-1.36034 0.57555,-1.46076 0.50316,-1.78241 -0.10454,-0.10473 -1.05596,-0.99146 -1.7517,-0.9617 -0.47275,1.62937 0.22568,3.24956 0.25454,4.26034 -0.0439,-0.01 -0.13182,-0.0311 -0.1757,-0.0403 -0.86387,-3.64373 -0.20486,-2.64886 -0.39205,-3.84169 -0.63245,0.0433 -7.18259,-1.20794 -7.28621,-1.22116 -27.23872,-2.76065 -25.1175,-9.30202 -54.95419,-13.324 -5.52109,-1.4405 -14.89096,-2.09608 -22.33644,-7.0773 -12.57734,-7.06736 -15.1164,-18.33496 -27.05356,-20.71476 -0.14517,-0.0672 -0.24956,-0.19077 -0.36726,-0.29189 -0.76679,-0.0919 -1.4499,-0.49315 -2.15958,-0.77016 -0.28516,0.094 -0.49903,0.36556 -0.82741,0.32825 -0.54524,-1.30033 -0.61289,-0.43549 -1.40345,-0.68233 -0.42859,-0.12342 -0.92605,-0.22462 -1.14077,-0.66408 -0.99255,0.0961 -3.16352,-0.82399 -3.53492,-0.99064 -0.0431,-0.0796 -0.0847,-0.15758 -0.12591,-0.23382 -0.18828,-0.01 -0.37636,-0.0238 -0.56293,-0.0351 -8.2e-4,-0.0393 -0.002,-0.11942 -0.002,-0.1591 l -0.0322,0.11026 c -1.00424,-0.42094 -0.92792,-0.0641 -1.40348,-0.20809 -1.62124,-0.50545 -0.2809,-0.84186 -2.66604,-1.28996 -0.0206,2.87159 -3.11244,51.84631 -5.74426,52.55788 -1.36437,0.55816 -2.68488,1.61927 -2.90817,1.82972 -0.64163,0.50152 -1.45992,0.71706 -2.10571,1.2103 -0.45599,0.45194 -1.15151,0.56301 -1.76658,0.50824 -0.0605,-0.42775 -0.24211,-0.83319 -0.26113,-1.26424 0.1095,-0.44686 0.47336,-0.78337 0.57534,-1.23686 -2.32332,-0.27689 -9.238832,3.87424 -9.476412,2.22184 0.17779,-0.81821 1.52663,-1.26641 1.71188,-1.76578 -0.81229,0.0134 -3.16261,1.06867 -4.01574,0.49977 -0.16253,-0.26522 -0.0114,-0.55699 0.11274,-0.79825 0.37718,-0.12019 0.88789,-0.14193 1.01883,-0.59359 -0.31916,-0.19486 -0.59024,-0.62179 -0.34234,-0.97484 0.65043,-0.50927 2.17137,-0.21326 2.48455,-1.48814 4.464802,-2.44044 3.767922,-2.65876 6.303772,-2.25653 0.68075,0.10435 4.2897,-0.57477 4.46254,-0.66414 1.21389,-0.93361 1.04964,-1.49041 1.15731,-1.83871 0.48484,-1.60881 -0.65953,-10.25627 -1.42507,-13.5795 -2.90498,-13.89196 3.24542,-9.21099 -1.64227,-33.57448 -1.03374,-9.63689 2.41691,-8.90506 -0.26942,-12.72422 -0.14345,0.0114 -0.28431,0.0269 -0.42693,0.0414 -0.40356,-3.45072 0.52601,-3.45526 -0.11274,-4.06714 -0.81272,-0.11083 -2.09,0.26824 -4.49823,0.30511 -0.20146,0.52725 -0.41037,1.05367 -0.71546,1.53205 -0.0788,-0.53893 -0.0347,-1.12744 -0.347422,-1.60252 -9e-5,0 -0.90029,2.4357 -0.90029,2.4357 0.0364,0.55877 0.36394,1.09014 0.24046,1.65965 -0.0605,0.3639 -0.25784,0.69463 -0.281,1.06525 0.0423,0.37298 0.24128,0.71126 0.25286,1.09096 0.0809,0.6502 -0.28338,0.52384 0.68065,2.23835 0.314912,0.59265 0.720952,2.83866 0.677312,4.14081 -0.0279,1.1451 0.92906,2.25642 -0.0198,4.17902 -0.0538,-0.25696 -0.0729,-0.51815 -0.0921,-0.77675 -0.836392,0.11789 -0.351642,0.67446 -0.835672,1.04209 -1.04746,0.89754 -0.52269,0.83669 -2.332,1.09096 -0.006,-0.0754 -0.0172,-0.22627 -0.0215,-0.30169 -0.44099,0.15986 -1.0089,0.27019 -1.17219,0.77925 -0.20893,-0.01 -0.41783,-0.0227 -0.6251,-0.0403 0.006,-0.39376 0.22629,-0.72708 0.33241,-1.09274 -0.004,-0.37712 0.0538,-0.75104 0.24542,-1.08186 0.11198,-0.0816 0.26279,-0.13335 0.33322,-0.25872 0.15662,-0.61517 0.17322,-1.25349 0.12591,-1.88261 0.004,-2.26028 0.77309,-5.72101 0.94922,-6.70753 0.0654,-0.33073 -0.17149,-0.6127 -0.21966,-0.92679 -0.10359,-0.3797 -0.0496,-0.82738 -0.33407,-1.13581 -0.54049,-0.65236 -0.93267,-1.4466 -0.97404,-2.30468 -0.91601,-0.186 -0.94581,-0.68193 -1.03465,-1.09758 -0.11694,-0.0527 -0.23291,-0.1034 -0.34906,-0.15338 1.11904,-1.25845 1.90839,-1.11948 0.83898,-3.29698 -1.55362,-0.75465 -0.23931,-0.42743 -2.37181,-0.97658 -0.1343,0.0257 -0.26944,0.0517 -0.40377,0.0774 -0.54815,-0.3916 -0.31814,-0.36287 -1.16227,-0.41205 -0.37959,-0.57395 -0.0319,-0.0172 -1.24606,-0.63418 -0.16825,0.063 -0.30263,0.21387 -0.48578,0.23041 -0.29931,-0.11274 -0.43935,-0.42197 -0.58031,-0.68317 -0.37635,-0.16902 -0.78839,-0.26192 -1.19216,-0.34313 -0.0315,-0.0269 -0.0954,-0.0774 -0.12686,-0.10454 -0.33738,-0.0217 -0.68726,-0.0961 -0.93764,-0.33982 -0.21223,-0.23123 -0.54629,-0.17818 -0.81985,-0.26698 -0.16501,-0.0393 -0.17665,-0.23618 -0.24874,-0.35976 -0.28429,-0.19239 -0.54793,-0.41535 -0.77185,-0.67655 -0.2901,-0.41371 -0.81405,-0.51403 -1.22028,-0.77429 -0.14555,-0.4821 -0.326,-1.35485 -1.02958,-2.54087 -0.34545,-0.5663 0.0792,-0.69577 -0.65405,-1.01059 -0.18657,-0.3731 -0.40213,-0.74194 -0.44763,-1.16557 -0.0389,-0.3516 -0.3896,-0.57209 -0.42859,-0.92099 -0.006,-0.2794 0.28266,-0.43023 0.36478,-0.67409 0.46903,-3.05149 0.55682,-4.17417 2.09082,-5.65384 0.3324,-0.46586 0.43437,-1.06688 0.83152,-1.49216 0.15757,-0.16672 0.2595,-0.37309 0.33903,-0.58532 0.37717,-0.20972 0.81155,-0.41369 1.02129,-0.81075 1.54693,-0.82162 2.62717,-1.22022 2.62717,-1.22022 0.23498,-1.25857 0.64837,-0.43374 1.08938,-0.93103 0.24294,-0.24622 0.56459,-0.38219 0.90277,-0.43603 0.89761,-1.39525 2.99743,0.12686 3.98667,0.0217 0.9845,-0.13811 2.04965,1.48399 3.58552,0.76014 0.18313,-0.0941 0.32824,0.094 0.47666,0.17417 0.37886,0.28599 0.88873,0.17245 1.31732,0.31915 0.495702,0.22876 0.862942,0.65651 1.345432,0.90943 0.17073,0.28508 0.32082,0.5877 0.55714,0.82658 0.30509,0.63553 0.82254,0.31627 1.46076,1.21856 0.35154,0.49822 0.92441,0.78679 1.25432,1.30413 0.89306,1.03507 0.24347,0.43818 1.36789,1.04375 -0.11598,0.0858 -0.23374,0.16978 -0.34988,0.2553 0.0822,0.23971 0.31253,0.35161 0.49074,0.50907 0.12514,0.15585 0.14918,0.38632 0.31007,0.51567 0.18409,0.0672 0.42609,-0.091 0.57369,0.0857 0.74247,0.74526 0.8642,0.31958 0.7461,1.14657 0.17245,0.30097 0.43934,0.52641 0.75189,0.67395 0.0153,0.0538 0.0481,0.16177 0.0639,0.21552 0.31667,0.17169 0.67979,0.16254 1.02957,0.17742 -0.0298,0.0971 -0.0605,0.19486 -0.0887,0.29352 0.19153,0.34065 0.30509,0.75518 0.66241,0.96741 0.34576,0.2213 0.61104,0.60266 1.03963,0.66581 2.55178,0.37185 2.94301,-0.48283 3.95605,-1.3779 0.0753,-0.18389 0.0664,-0.39614 0.16005,-0.57116 0.14174,-0.0569 0.29351,-0.0838 0.44265,-0.12019 0.11866,-1.24553 1.90507,-0.40098 2.1173,-0.81736 0.0647,-0.13926 0.0614,-0.29685 0.0847,-0.44429 -1.48702,-1.62431 1.16124,-6.7288 2.22836,-8.75596 0.0343,-0.0299 3.09208,-5.22639 3.70982,-5.90759 3.40564,-3.84665 7.37029,-14.74508 7.39563,-18.26668 0.24521,-6.09823 5.61114,-16.60671 4.99142,-27.67935 -0.46777,-2.92667 -6.30398,-6.83574 -6.40741,-6.93873 -0.16749,-0.15433 -0.0738,-0.40709 -0.0921,-0.60516 2.16983,-1.30309 3.56337,1.73765 5.44081,1.65717 0.90858,-0.32174 -0.18161,-7.28848 1.10922,-7.8581 0.3507,-0.21232 0.70379,0.11198 1.02132,0.24208 0.0746,-0.27917 0.11102,-0.59502 0.32742,-0.80808 m 74.44026,134.79221 c 0.33819,1.22062 8.70415,3.48295 9.8179,3.47273 -0.8219,-1.20431 -8.22145,-3.4684 -9.8179,-3.47273 m 46.53136,8.57276 c -0.25122,0.27607 -0.59687,0.56041 -0.56293,0.97484 0.99369,0.063 0.64112,0.33403 1.10674,0.47424 1.5528,0.53044 0.9819,0.24239 1.71362,0.40544 0.97001,0.23258 1.47741,-3.03745 -0.17074,-2.8369 -0.815,-0.0671 -1.54702,0.41877 -2.08669,0.98238 m -25.9035,-0.67893 c 0.01,0.42651 6.23076,3.03693 6.93383,2.9736 0.97062,0.91252 2.01491,1.20792 2.1687,1.22362 1.98584,0.35016 1.74599,0.77925 2.97116,0.86883 1.10477,0.15414 0.89006,1.01399 1.49301,1.34297 0.078,0.0372 1.94355,0.61208 2.07831,0.61094 0.42859,-0.39965 0.97902,-0.64162 1.54524,-0.77605 -0.0315,-0.11847 -0.0382,-0.252 -0.14345,-0.32493 -1.09455,-0.89705 -1.09331,-0.5784 -1.56936,-0.3946 -0.1034,-0.032 -14.08837,-6.11754 -15.47737,-5.52438 m 13.39958,15.36046 c 0.006,0.34737 -0.0414,0.72376 0.12018,1.04705 0.17913,0.30263 0.6549,0.38044 0.92275,0.15013 -0.054,-0.41701 0.0115,-0.85716 -0.18409,-1.24357 -0.33271,-0.70755 0.16215,-1.24441 -0.44938,-1.47068 -0.20809,0.48168 -0.42022,0.98166 -0.40946,1.51717 m 1.81055,0.3705 c 0.0897,-0.0929 0.18065,-0.18466 0.27271,-0.27596 -0.11293,-0.94001 -0.19431,-1.15668 -0.44679,-1.24357 -0.16348,0.35026 -0.0607,1.22104 0.17417,1.51953 z"
       inkscape:connector-curvature="0"
       style="fill:#800080" />
  </g>
</svg>
