<?xml version="1.0" encoding="UTF-8" standalone="no"?>
<!-- Created with Inkscape (http://www.inkscape.org/) -->

<svg
   xmlns:dc="http://purl.org/dc/elements/1.1/"
   xmlns:cc="http://creativecommons.org/ns#"
   xmlns:rdf="http://www.w3.org/1999/02/22-rdf-syntax-ns#"
   xmlns:svg="http://www.w3.org/2000/svg"
   xmlns="http://www.w3.org/2000/svg"
   xmlns:sodipodi="http://sodipodi.sourceforge.net/DTD/sodipodi-0.dtd"
   xmlns:inkscape="http://www.inkscape.org/namespaces/inkscape"
   width="500"
   height="500"
   viewBox="0 0 500.00001 500.00001"
   id="svg2"
   version="1.1"
   inkscape:version="0.91 r13725"
   sodipodi:docname="logo2.svg">
  <defs
     id="defs4" />
  <sodipodi:namedview
     id="base"
     pagecolor="#ffffff"
     bordercolor="#666666"
     borderopacity="1.0"
     inkscape:pageopacity="0.0"
     inkscape:pageshadow="2"
     inkscape:zoom="1"
     inkscape:cx="188.99251"
     inkscape:cy="250"
     inkscape:document-units="px"
     inkscape:current-layer="layer1"
     showgrid="false"
     units="px"
     inkscape:showpageshadow="false"
     showborder="true"
     inkscape:window-width="1920"
     inkscape:window-height="1151"
     inkscape:window-x="0"
     inkscape:window-y="1"
     inkscape:window-maximized="1" />
  <metadata
     id="metadata7">
    <rdf:RDF>
      <cc:Work
         rdf:about="">
        <dc:format>image/svg+xml</dc:format>
        <dc:type
           rdf:resource="http://purl.org/dc/dcmitype/StillImage" />
        <dc:title />
      </cc:Work>
    </rdf:RDF>
  </metadata>
  <g
     inkscape:label="Layer 1"
     inkscape:groupmode="layer"
     id="layer1"
     transform="translate(0,-552.36216)">
    <text
       xml:space="preserve"
       style="font-style:normal;font-variant:normal;font-weight:normal;font-stretch:normal;font-size:98.68048096px;line-height:125%;font-family:'Songti TC';-inkscape-font-specification:'Songti TC, Normal';text-align:start;letter-spacing:0px;word-spacing:0px;writing-mode:lr-tb;text-anchor:start;fill:#000000;fill-opacity:1;stroke:none;stroke-width:1px;stroke-linecap:butt;stroke-linejoin:miter;stroke-opacity:1"
       x="150.70544"
       y="917.82782"
       id="text3336"
       sodipodi:linespacing="125%"><tspan
         sodipodi:role="line"
         id="tspan3338"
         x="150.70544"
         y="917.82782">joyful<tspan
   style="fill:#800080"
   id="tspan3344" /></tspan></text>
    <text
       xml:space="preserve"
       style="font-style:normal;font-variant:normal;font-weight:normal;font-stretch:normal;font-size:70.42195892px;line-height:100%;font-family:'Shree Devanagari 714';-inkscape-font-specification:'Shree Devanagari 714, Normal';text-align:start;letter-spacing:0px;word-spacing:0px;writing-mode:lr-tb;text-anchor:start;fill:#666666;fill-opacity:1;stroke:none;stroke-width:1px;stroke-linecap:butt;stroke-linejoin:miter;stroke-opacity:1"
       x="207.77542"
       y="1000.4346"
       id="text3340"
       sodipodi:linespacing="100%"
       transform="scale(1.0413302,0.96031019)"><tspan
         sodipodi:role="line"
         id="tspan3342"
         x="207.77542"
         y="1000.4346"
         style="font-style:normal;font-variant:normal;font-weight:normal;font-stretch:normal;font-size:30.80960846px;line-height:100%;font-family:'Shree Devanagari 714';-inkscape-font-specification:'Shree Devanagari 714, Normal';text-align:start;writing-mode:lr-tb;text-anchor:start;fill:#666666">WORKOUT</tspan></text>
    <path
       id="path3396"
       d="m 198.04649,643.73889 c 0.31563,-0.34299 1.50332,-0.75348 1.68645,1.12666 0.0385,0.47929 0.11151,0.95643 0.25198,1.41742 0.2616,-0.095 0.52644,-0.18651 0.78806,-0.28728 1.54561,0.57602 2.07459,4.86447 2.34356,6.57411 0.0965,0.10954 0.21019,0.19934 0.32274,0.29476 0.0974,-1.28127 -0.16406,-2.54943 -0.18453,-3.82535 -0.0767,-0.66286 1.10023,-1.27016 1.59633,0.0814 0.93196,2.70883 0.6726,4.17542 1.4077,5.99743 0.63343,1.63521 -0.42319,5.37745 -1.27155,7.12076 -1.21794,2.2827 -2.74778,35.07327 -3.25924,37.40728 -0.37195,1.02914 -1.16964,1.88376 -1.35193,2.98903 -0.34683,2.30049 -5.78297,20.73398 -5.98988,21.35449 -4.20216,11.72975 -5.14002,12.98482 4.38593,22.25602 1.12632,1.10727 2.9968,1.33749 5.18682,4.24876 0.72441,0.90619 1.75844,1.11344 1.89232,1.20617 1.18007,1.63401 1.65006,1.27804 2.48613,2.44866 0.53179,0.82016 1.37657,1.35301 2.12918,1.94788 0.13717,0.13519 2.48868,3.93851 7.39529,6.76401 3.71919,2.46711 4.88483,1.77496 6.32438,2.68223 0.45889,0.31854 1.03884,0.1384 1.5578,0.18996 8.30855,-0.38856 31.23331,6.50262 44.37829,16.68267 0.13396,0.0962 20.009,15.0188 21.77582,16.28137 12.59432,8.29378 10.30947,0.18848 39.85352,19.3283 0.13445,0.0747 3.40085,1.8418 5.00024,3.14016 3.97078,3.31986 2.59315,0.61157 8.10727,5.40229 0.25412,0.25413 0.63463,0.10682 0.95204,0.18749 0.83193,0.26378 1.59857,0.6936 2.42944,0.965 0.35589,0.24547 0.45139,0.72153 0.68077,1.07414 0.54144,0.0841 0.99391,0.41288 1.50202,0.59941 1.62531,0.61517 0.61712,1.01174 2.67379,1.03461 0.48458,-0.48676 0.83622,-1.0839 1.31009,-1.57923 3.01967,-2.82695 6.32744,-0.46338 3.75558,3.00186 1.0918,1.04248 2.96885,0.4559 5.02483,2.44333 3.62839,3.57988 8.26148,0.82346 10.36819,6.02521 1.5087,4.05542 -1.10157,7.85777 -3.87235,11.18952 -0.50075,0.59061 -0.2013,0.9952 -2.63526,1.99091 -0.30122,0.11891 -0.48672,-0.19095 -0.63893,-0.38496 -5.00453,0.39431 -3.93158,-3.758 -6.10021,-4.28524 -0.30159,0.77725 -1.60659,3.70362 -2.7071,3.80489 0.11028,0.10164 0.22203,0.2092 0.33238,0.32175 -0.21117,0.13717 -0.42025,0.2766 -0.62716,0.41917 0.0696,0.62105 0.16134,0.35288 -1.27369,2.45936 -0.16085,-0.0493 -0.3087,-0.0962 -0.45356,-0.16084 0.0311,0.20352 0.059,0.4106 0.089,0.62065 -0.0535,0.0321 -0.16084,0.095 -0.21438,0.12828 -0.20698,0.35809 -0.44283,0.70014 -0.68933,1.03245 l -5.04854,0 c -0.0493,-0.21562 -0.091,-0.43092 -0.12557,-0.64538 -1.80655,-1.07295 -2.70548,-2.97272 -2.88927,-3.99875 -1.00432,-3.72726 -3.09043,-3.82828 -3.72225,-4.19735 -0.36167,-0.206 -1.94916,-1.84377 -0.94669,1.1387 -0.11349,-0.25095 -0.21759,-0.5028 -0.31418,-0.75587 -0.26589,0.056 -0.6111,0.036 -0.75796,0.31107 0.0481,0.84043 0.72157,1.50946 0.73763,2.36502 0.053,1.04542 -0.96916,0.79354 -1.30902,0.0614 -0.27981,-0.47288 -0.31632,-1.05063 -0.61752,-1.50747 -0.39309,-0.13223 -2.85248,-0.28674 -2.10991,-2.78311 0.53727,-1.75922 0.74432,-1.88909 0.6507,-2.30505 -0.13519,-0.13544 -1.36559,-1.28218 -2.26533,-1.24369 -0.61138,2.10714 0.29185,4.2024 0.32917,5.50957 -0.0567,-0.0123 -0.17047,-0.0402 -0.22721,-0.0521 -1.11719,-4.71217 -0.26493,-3.42557 -0.50702,-4.96817 -0.81789,0.056 -9.2887,-1.56213 -9.4227,-1.57923 -35.22578,-3.57014 -32.48256,-12.0296 -71.06811,-17.23092 -7.14,-1.86289 -19.25735,-2.7107 -28.88602,-9.15254 -16.26533,-9.13969 -19.5489,-23.71122 -34.98633,-26.78884 -0.18774,-0.0868 -0.32273,-0.2467 -0.47495,-0.37748 -0.99164,-0.11891 -1.87505,-0.63775 -2.79283,-0.99598 -0.36877,0.12162 -0.64534,0.47275 -1.07001,0.4245 -0.70512,-1.68162 -0.79261,-0.5632 -1.81498,-0.8824 -0.55427,-0.15962 -1.19759,-0.29049 -1.47528,-0.85882 -1.28358,0.12434 -4.09114,-1.0656 -4.57144,-1.28112 -0.0558,-0.10287 -0.10954,-0.20377 -0.16283,-0.30238 -0.24349,-0.0123 -0.48671,-0.0308 -0.72799,-0.0454 -10e-4,-0.0508 -0.002,-0.15444 -0.002,-0.20575 l -0.0417,0.14259 c -1.29871,-0.54437 -1.2,-0.0829 -1.815,-0.2691 -2.09664,-0.65366 -0.36327,-1.08872 -3.4478,-1.66822 -0.0266,3.71362 -4.02508,67.04892 -7.42862,67.96914 -1.76443,0.72183 -3.47215,2.09408 -3.76091,2.36624 -0.82978,0.64858 -1.888,0.92732 -2.72316,1.56519 -0.58969,0.58446 -1.48916,0.72809 -2.28458,0.65727 -0.0782,-0.55318 -0.31311,-1.0775 -0.33771,-1.63494 0.14161,-0.5779 0.61217,-1.01308 0.74405,-1.59954 -3.00457,-0.35809 -11.94788,5.01026 -12.25512,2.87333 0.22992,-1.05813 1.97427,-1.63775 2.21384,-2.28354 -1.05048,0.0173 -4.08996,1.38202 -5.19326,0.64631 -0.21018,-0.34299 -0.0148,-0.72032 0.14581,-1.03232 0.48777,-0.15543 1.14824,-0.18355 1.31758,-0.76764 -0.41276,-0.252 -0.76332,-0.80412 -0.44273,-1.26069 0.84115,-0.6586 2.80807,-0.27579 3.21308,-1.92449 5.774,-3.15605 4.87277,-3.43838 8.15219,-2.91821 0.88036,0.13495 5.54755,-0.74331 5.77106,-0.85889 1.56984,-1.20735 1.35743,-1.92742 1.49666,-2.37785 0.62702,-2.08056 -0.85292,-13.26367 -1.84293,-17.56135 -3.75679,-17.96543 4.19706,-11.91187 -2.12382,-43.41934 -1.33685,-12.46266 3.1256,-11.51624 -0.34842,-16.45527 -0.18552,0.0148 -0.36768,0.0348 -0.55212,0.0535 -0.52189,-4.46256 0.68026,-4.46843 -0.1458,-5.25972 -1.05102,-0.14334 -2.70283,0.34688 -5.81721,0.39457 -0.26054,0.68186 -0.53071,1.36263 -0.92526,1.98128 -0.10188,-0.69695 -0.0449,-1.45803 -0.44929,-2.07241 -1.2e-4,0 -1.16428,3.14991 -1.16428,3.14991 0.0471,0.72261 0.47066,1.40979 0.31097,2.1463 -0.0782,0.4706 -0.33344,0.89831 -0.36339,1.3776 0.0548,0.48235 0.31202,0.91983 0.327,1.41086 0.1046,0.84086 -0.36648,0.67744 0.88023,2.89469 0.40725,0.76643 0.93236,3.67102 0.87591,5.355 -0.036,1.48087 1.20149,2.91805 -0.0257,5.40441 -0.0696,-0.33231 -0.0942,-0.67009 -0.11916,-1.00452 -1.08163,0.15246 -0.45474,0.87224 -1.08069,1.34765 -1.35462,1.16073 -0.67597,1.08204 -3.0158,1.41086 -0.007,-0.0974 -0.0222,-0.29261 -0.0279,-0.39015 -0.5703,0.20673 -1.30473,0.34942 -1.51591,1.00775 -0.27019,-0.0123 -0.54035,-0.0294 -0.80839,-0.0521 0.007,-0.50921 0.29264,-0.94028 0.42988,-1.41315 -0.005,-0.48771 0.0696,-0.97127 0.31738,-1.39909 0.14481,-0.10559 0.33985,-0.17245 0.43094,-0.33458 0.20254,-0.79556 0.224,-1.62105 0.16282,-2.43465 0.005,-2.92303 0.99978,-7.39854 1.22756,-8.67433 0.0846,-0.42771 -0.22178,-0.79236 -0.28408,-1.19855 -0.13396,-0.49103 -0.0641,-1.06999 -0.43202,-1.46886 -0.69898,-0.84364 -1.20615,-1.87078 -1.25966,-2.98047 -1.18461,-0.24053 -1.22314,-0.88188 -1.33803,-1.41942 -0.15123,-0.0681 -0.3012,-0.13371 -0.45141,-0.19835 1.44717,-1.62746 2.46797,-1.44774 1.08499,-4.26373 -2.00919,-0.97593 -0.30949,-0.55276 -3.06729,-1.26294 -0.17367,0.0333 -0.34844,0.0668 -0.52216,0.10016 -0.70888,-0.50643 -0.41143,-0.46928 -1.50308,-0.53288 -0.49089,-0.74225 -0.0412,-0.0222 -1.61143,-0.82013 -0.21759,0.0814 -0.39137,0.27658 -0.62822,0.29797 -0.38708,-0.1458 -0.56818,-0.54571 -0.75047,-0.88349 -0.48671,-0.21858 -1.01956,-0.33872 -1.54173,-0.44374 -0.0407,-0.0348 -0.12335,-0.10016 -0.16406,-0.13519 -0.43631,-0.0281 -0.88879,-0.12434 -1.21258,-0.43948 -0.27446,-0.29902 -0.70648,-0.23042 -1.06025,-0.34525 -0.2134,-0.0508 -0.22845,-0.30545 -0.32168,-0.46526 -0.36765,-0.2488 -0.7086,-0.53714 -0.99817,-0.87492 -0.37516,-0.53503 -1.05275,-0.66477 -1.5781,-1.00134 -0.18824,-0.62346 -0.42159,-1.75212 -1.33147,-3.28591 -0.44675,-0.73236 0.10238,-0.8998 -0.84584,-1.30693 -0.24128,-0.48249 -0.52005,-0.95949 -0.57889,-1.50734 -0.0503,-0.4547 -0.50384,-0.73983 -0.55426,-1.19105 -0.007,-0.36132 0.36554,-0.55638 0.47174,-0.87174 0.60657,-3.94626 0.7201,-5.39815 2.7039,-7.31168 0.42987,-0.60247 0.56173,-1.37973 1.07534,-1.9297 0.20378,-0.21562 0.33559,-0.4825 0.43844,-0.75695 0.48778,-0.27123 1.04952,-0.535 1.32076,-1.04848 2.00053,-1.06255 3.39752,-1.57803 3.39752,-1.57803 0.30389,-1.62761 0.83849,-0.56092 1.40881,-1.20402 0.31418,-0.31842 0.73014,-0.49427 1.16749,-0.56389 1.16081,-1.80437 3.87635,0.16406 5.15566,0.0281 1.27318,-0.17862 2.65066,1.91913 4.63688,0.98303 0.23683,-0.12163 0.4245,0.12162 0.61643,0.22523 0.48995,0.36986 1.14933,0.22302 1.70359,0.41273 0.64106,0.29585 1.11598,0.84903 1.73994,1.1761 0.2208,0.36867 0.4149,0.76004 0.72051,1.06896 0.39455,0.82188 1.06373,0.40901 1.88909,1.57588 0.45462,0.64431 1.19547,1.01749 1.62211,1.68652 1.15494,1.33858 0.31487,0.56667 1.769,1.3498 -0.15,0.11102 -0.30228,0.21957 -0.45248,0.33016 0.10633,0.31001 0.40417,0.45472 0.63464,0.65835 0.16184,0.20155 0.19292,0.49959 0.40099,0.66688 0.23807,0.0868 0.55103,-0.11767 0.74191,0.11077 0.96018,0.96379 1.1176,0.4133 0.96487,1.48277 0.22302,0.38922 0.56818,0.68078 0.97237,0.87157 0.0197,0.0696 0.0622,0.20921 0.0826,0.27873 0.40953,0.22203 0.87912,0.21019 1.33147,0.22943 -0.0385,0.12557 -0.0782,0.252 -0.11471,0.3796 0.24768,0.44053 0.39455,0.97661 0.85664,1.25107 0.44715,0.2862 0.79021,0.77938 1.34447,0.86104 3.30003,0.48089 3.80599,-0.6244 5.11607,-1.78193 0.0975,-0.23782 0.0859,-0.5123 0.20698,-0.73864 0.1833,-0.0735 0.37958,-0.10831 0.57245,-0.15543 0.15344,-1.61076 2.46368,-0.51856 2.73813,-1.05704 0.0836,-0.18009 0.0794,-0.38389 0.10954,-0.57456 -1.92306,-2.10059 1.50174,-8.70185 2.88176,-11.32342 0.0444,-0.0387 3.99876,-6.75889 4.79763,-7.63984 4.40426,-4.97458 9.53145,-19.0687 9.56421,-23.62292 0.31711,-7.88637 7.25647,-21.47621 6.45504,-35.79561 -0.60494,-3.78484 -8.15247,-8.84014 -8.28623,-8.97333 -0.2166,-0.19959 -0.0955,-0.52646 -0.11916,-0.78261 2.80608,-1.6852 4.60824,2.24717 7.03619,2.14309 1.17499,-0.41609 -0.23486,-9.42564 1.43447,-10.16229 0.45354,-0.27458 0.91016,0.14481 1.32079,0.31306 0.0965,-0.36102 0.14358,-0.76948 0.42344,-1.04502 m 96.26797,174.31658 c 0.43735,1.57854 11.25641,4.50424 12.69675,4.49102 -1.06292,-1.55745 -10.63219,-4.48542 -12.69675,-4.49102 m 60.17548,11.0865 c -0.32488,0.35703 -0.77188,0.72474 -0.72799,1.2607 1.28506,0.0814 0.82911,0.43197 1.43126,0.61329 2.00812,0.68598 1.26982,0.31346 2.21609,0.52432 1.25445,0.30078 1.91063,-3.9281 -0.2208,-3.66874 -1.05398,-0.0868 -2.00064,0.54155 -2.69856,1.27043 M 320.993,828.26037 c 0.0123,0.55158 8.05778,3.92744 8.967,3.84553 1.25524,1.1801 2.60573,1.56211 2.80462,1.58242 2.56813,0.45284 2.25796,1.00775 3.84237,1.1236 1.42872,0.19933 1.15106,1.31131 1.93081,1.73675 0.1009,0.0481 2.51344,0.79157 2.68771,0.79009 0.55426,-0.51684 1.26609,-0.82976 1.99835,-1.00361 -0.0407,-0.1532 -0.0493,-0.32589 -0.18552,-0.42021 -1.4155,-1.16008 -1.41389,-0.74799 -2.02953,-0.5103 -0.13372,-0.0414 -18.21943,-7.91136 -20.01571,-7.14427 m 17.32866,19.86453 c 0.007,0.44922 -0.0535,0.93599 0.15542,1.35407 0.23165,0.39137 0.84693,0.492 1.19332,0.19416 -0.0698,-0.53929 0.0148,-1.10851 -0.23807,-1.60823 -0.43027,-0.91501 0.2097,-1.6093 -0.58115,-1.90191 -0.2691,0.62292 -0.54343,1.2695 -0.52952,1.96204 m 2.34144,0.47914 c 0.11595,-0.12014 0.23363,-0.23881 0.35269,-0.35688 -0.14605,-1.21564 -0.25129,-1.49585 -0.5778,-1.60822 -0.21143,0.45297 -0.0785,1.57909 0.22524,1.9651 z"
       inkscape:connector-curvature="0"
       style="fill:#800080" />
  </g>
</svg>
