<?xml version="1.0" encoding="UTF-8" standalone="no"?>
<svg xmlns:rdf="http://www.w3.org/1999/02/22-rdf-syntax-ns#" xmlns="http://www.w3.org/2000/svg" height="165.49" width="297.91" version="1.1" xmlns:cc="http://creativecommons.org/ns#" xmlns:dc="http://purl.org/dc/elements/1.1/" viewBox="0 0 297.90976 165.48592">
 <g transform="translate(-81.129 -719.62)">
  <g>
   <path d="m170.42 800.96q2.9759-2.4418 4.2731-5.8755 1.2972-3.4338 1.2972-8.8515v-23.197q0-1.2209-0.38153-1.9076-0.38153-0.68675-1.3735-0.99197-0.99197-0.38153-2.9759-0.61045v-1.5261q2.8233-0.83936 5.0362-2.1366t3.5101-3.1285h1.2209v33.04q0 4.8836-2.6707 9.1567-2.6707 4.3494-7.3254 7.0201l-0.61045-0.99197zm7.1728-63.868q1.6024 0 2.4418 0.91566 0.83936 0.91567 0.83936 2.5181 0 1.5261-1.0683 2.5181-0.99197 0.91566-2.5181 0.91566-1.6024 0.15262-2.4418-0.99197-0.76306-1.1446-0.76306-2.5181 0-1.4498 0.91567-2.4418 0.91567-1.0683 2.5944-0.91566z"/>
   <path d="m205.19 784.7q-3.4338 0-6.3334-1.1446-2.8996-1.2209-5.0362-3.2812-2.1366-2.1366-3.3575-5.0362t-1.2209-6.3334q0-3.5101 1.2209-6.4097t3.4338-4.9599q2.2129-2.1366 5.1888-3.2812 3.0522-1.2209 6.7149-1.2209 3.739 0 6.7149 1.2972 3.0522 1.2209 5.1888 3.4338 2.1366 2.1366 3.2812 5.1125 1.2209 2.8996 1.2209 6.1808 0 3.3574-1.2972 6.1808-1.2209 2.8233-3.5101 4.9599-2.2129 2.1366-5.3414 3.3575-3.1285 1.1446-6.8675 1.1446zm-9.9198-15.185q0 6.3334 2.8233 9.996 2.8233 3.5864 7.4017 3.5864 2.2892 0 4.2731-0.99197 1.984-0.99198 3.3575-2.8233 1.4498-1.9076 2.2129-4.502 0.83937-2.5944 0.83937-5.7992t-0.76306-5.7992q-0.68675-2.6707-2.0603-4.5784-1.3735-1.9076-3.3574-2.8996-1.984-1.0683-4.4257-1.0683-4.8073 0-7.5543 3.739t-2.747 11.141z"/>
   <path d="m240.12 791.42q-1.3735 3.5864-3.3574 5.3414-1.984 1.755-4.1968 1.755-1.2972 0-2.0602-0.83937-0.76306-0.83936-0.91567-1.755-0.0763-0.83936 0.38153-1.5261 0.53414-0.68675 1.6787-0.76305 0.83936-0.30523 1.6024-0.22892 0.76305 0.0763 1.4498 0.15261 0.68675 0.15261 1.2209 0.15261 0.53414 0.0763 0.91567-0.22892 0.22891-0.15261 0.45783-0.30522 0.30522-0.15261 0.53414-0.61044 0.30523-0.38153 0.61045-1.1446 0.30522-0.68675 0.76306-1.984 0.83936-2.5181 0.83936-3.5101-0.15261-1.3735-0.91567-3.2811l-9.3856-24.342q-0.61045-1.755-1.984-2.1366l-2.6707-0.83937v-1.2972q4.8073 0.38152 8.4699 0.38152 3.739 0 6.9438-0.38152v1.2972q-0.83936 0.15261-1.9076 0.30523-0.99198 0.0763-1.8313 0.30522-0.83936 0.22892-1.2972 0.76306-0.38153 0.53414-0.0763 1.4498l7.6306 21.213 6.9438-19.076q0.38153-1.0683 0.30522-2.2892 0-1.2972-1.2972-1.6787l-4.2731-1.0683v-1.2209q3.4338 0.38152 6.3334 0.38152 2.9759 0 6.7912-0.38152v1.2209l-2.4418 0.68675q-0.61045 0.15261-1.0683 0.45783-0.38153 0.22892-0.83937 0.83937-0.38153 0.53414-0.83936 1.4498-0.38153 0.91567-0.91567 2.3655l-11.598 30.37z"/>
   <path d="m271.24 754.26 9.8434 0.22892v2.6707l-9.6908 0.30522v19.076q0 4.6546 3.2048 5.1125l4.9599 0.76306v1.2972q-4.0442-0.22892-8.3173-0.22892h-2.2129q-5.5703 0-8.3936 0.22892v-1.2209l2.3655-0.53414q1.2209-0.22891 1.8313-0.53414 0.61045-0.30522 0.91567-0.83936t0.30522-1.2972q0.0763-0.83936 0.0763-2.1366v-18.771q-1.4498-0.30522-5.5703-0.45783v-1.1446q1.755-0.68675 2.8233-1.2209 1.0683-0.61045 1.6024-1.0683 0.61045-0.45783 0.76306-0.91567 0.22892-0.45783 0.22892-1.0683 0-1.6787 0.53414-4.731 0.61044-3.1285 2.1366-6.1808 1.5261-3.0522 4.1205-5.4177 2.6707-2.4418 6.7912-2.8996 0.53414-0.0763 1.0683-0.0763 0.53414-0.0763 1.1446-0.0763 6.2571 0.15261 6.2571 3.3574 0 2.8233-3.0522 2.8233-0.61045 0-1.5261-0.38153-0.91567-0.45783-1.984-0.91567-0.99198-0.53414-2.1366-0.91566-1.0683-0.45784-2.1366-0.45784-2.2892 0-3.5864 1.0683-1.2209 1.0683-1.755 2.8233-0.53414 1.755-0.61045 3.9679-0.0763 2.1366-0.0763 4.4257 0 2.0602 0 3.4338 0 1.2972 0.0763 1.9076z"/>
   <path d="m284.07 754.49h10.225v19.534q0 3.6627 1.2209 5.1888 1.2972 1.5261 4.6546 1.5261 4.9599 0 9.1567-3.739v-18.313q0-0.76306-0.22891-1.2209-0.22892-0.45783-0.99198-0.68675-0.68675-0.30522-2.0603-0.53414-1.3735-0.22892-3.5864-0.45783v-1.2972h12.285v22.358q0 1.3735 0.15261 2.1366 0.15261 0.76306 0.68676 1.1446 0.53414 0.38152 1.5261 0.53414 1.0683 0.0763 2.8996 0.0763 0 0.30523 0 0.61045 0.0763 0.30522 0.0763 0.61044l-10.759 2.747v-5.7992q-3.3574 2.8996-6.0282 4.4257-2.5944 1.4498-5.494 1.4498-3.9679 0-6.4097-2.8233-2.3655-2.8233-2.3655-7.478v-15.872q0-1.4498-0.99198-1.984-0.91566-0.53414-3.9679-0.99197v-1.1446z"/>
   <path d="m340.73 783.71q-1.8313-0.0763-4.0442-0.15261-2.2129-0.0763-4.502-0.0763-2.2892 0-4.502 0.0763-2.2129 0.0763-4.0442 0.15261v-1.2972l4.5783-0.91567q0.99198-0.22892 1.3735-0.61045 0.38153-0.38153 0.38153-1.5261v-38.611q0-1.6024-0.91567-2.3655-0.91567-0.76305-4.0442-1.6787v-1.0683q1.4498-0.30523 3.6627-0.91567 2.2129-0.61045 4.6546-1.6024h1.755v46.089q0 1.4498 0.30522 1.9076 0.30523 0.38153 1.4498 0.61045l3.8916 0.68675v1.2972z"/>
  </g>
  <g fill="#666" transform="scale(1.0413 .96031)">
   <path d="m247.05 858.61h-1.593v-23.616h14.616v1.5532h-13.023v9.0802h11.51v1.4735h-11.51v11.51z"/>
   <path d="m264.46 858.61h-1.593v-23.616h1.593v23.616z"/>
   <path d="m276.85 858.61h-1.593v-22.063h-8.0846v-1.5532h17.842v1.5532h-8.1642v22.063z"/>
   <path d="m289.38 858.61h-1.593v-23.616h2.1904l14.258 21.665v-21.665h1.593v23.616h-2.1904l-14.258-21.346v21.346z"/>
   <path d="m326.37 858.61h-15.412v-23.616h15.412v1.5532h-13.819v9.0802h12.625v1.4735h-12.625v9.9962h13.819v1.5134z"/>
   <path d="m336.06 859.21q-3.425 0-5.8145-2.3099-2.4293-2.27-2.4293-5.5357h1.593q0 2.6285 1.9514 4.5003t4.6994 1.8718q2.9869 0 5.1375-1.593 2.1108-1.593 2.1108-3.8631 0-1.9514-1.8718-3.2657-1.832-1.3142-4.9384-1.593-3.7834-0.3186-6.0535-2.1506-2.27-1.832-2.27-4.5003 0-2.6285 2.3099-4.5003t5.5756-1.8718q3.5046 0 6.0136 1.9514 2.4692 1.9514 2.4692 4.6994h-1.593q0-2.1108-2.0311-3.6241-1.9913-1.5134-4.8587-1.5134-2.5886 0-4.4604 1.4337-1.832 1.3939-1.832 3.425 0 1.9913 1.9116 3.3453 1.9514 1.3541 5.1375 1.6328 3.6639 0.3186 5.8942 2.1107 2.1904 1.7922 2.1904 4.4206 0 2.8674-2.5886 4.8985t-6.2526 2.0311z"/>
   <path d="m355.15 859.21q-3.425 0-5.8145-2.3099-2.4294-2.27-2.4294-5.5357h1.593q0 2.6285 1.9514 4.5003t4.6994 1.8718q2.9869 0 5.1375-1.593 2.1107-1.593 2.1107-3.8631 0-1.9514-1.8718-3.2657-1.832-1.3142-4.9384-1.593-3.7834-0.3186-6.0535-2.1506-2.27-1.832-2.27-4.5003 0-2.6285 2.3099-4.5003t5.5756-1.8718q3.5046 0 6.0136 1.9514 2.4692 1.9514 2.4692 4.6994h-1.593q0-2.1108-2.0311-3.6241-1.9913-1.5134-4.8587-1.5134-2.5886 0-4.4604 1.4337-1.832 1.3939-1.832 3.425 0 1.9913 1.9116 3.3453 1.9514 1.3541 5.1375 1.6328 3.6639 0.3186 5.8942 2.1107 2.1904 1.7922 2.1904 4.4206 0 2.8674-2.5886 4.8985t-6.2526 2.0311z"/>
  </g>
  <path fill="#800080" d="m137.46 719.85c0.24406-0.26522 1.1625-0.58263 1.3041 0.87121 0.0298 0.37061 0.0862 0.73957 0.19484 1.096 0.20229-0.0734 0.40708-0.14422 0.60938-0.22214 1.1952 0.44541 1.6042 3.7615 1.8122 5.0835 0.0746 0.0847 0.16253 0.15413 0.24955 0.22792 0.0754-0.99075-0.12685-1.9714-0.14269-2.958-0.0593-0.51257 0.85077-0.98217 1.2344 0.063 0.72065 2.0946 0.5201 3.2287 1.0885 4.6376 0.48981 1.2644-0.32723 4.1582-0.98323 5.5062-0.94179 1.7651-2.1248 27.121-2.5202 28.926-0.28762 0.7958-0.90443 1.4566-1.0454 2.3113-0.2682 1.7789-4.4718 16.033-4.6317 16.513-3.2494 9.0702-3.9746 10.041 3.3915 17.21 0.87093 0.85621 2.3173 1.0342 4.0108 3.2854 0.56016 0.70072 1.3597 0.86098 1.4633 0.93268 0.9125 1.2635 1.2759 0.98826 1.9224 1.8935 0.41121 0.63419 1.0644 1.0462 1.6464 1.5062 0.10606 0.10454 1.9244 3.0455 5.7185 5.2304 2.8759 1.9077 3.7772 1.3725 4.8904 2.0741 0.35485 0.24632 0.80329 0.10702 1.2046 0.14689 6.4247-0.30045 24.152 5.0282 34.316 12.9 0.10358 0.0744 15.472 11.613 16.838 12.59 9.7387 6.4132 7.9719 0.14574 30.817 14.946 0.10397 0.0578 2.6298 1.4242 3.8665 2.4282 3.0704 2.5671 2.0052 0.47291 6.269 4.1774 0.19651 0.19651 0.49075 0.0826 0.73618 0.14498 0.6433 0.20397 1.2361 0.53633 1.8786 0.74619 0.2752 0.18982 0.34904 0.55793 0.52642 0.83059 0.41867 0.0651 0.76855 0.31927 1.1614 0.4635 1.2568 0.47569 0.47719 0.78235 2.0675 0.80003 0.3747-0.3764 0.64662-0.83814 1.013-1.2212 2.335-2.186 4.8928-0.35831 2.904 2.3212 0.84425 0.80612 2.2957 0.35254 3.8855 1.8893 2.8057 2.7682 6.3883 0.63676 8.0173 4.6591 1.1666 3.1359-0.8518 6.0761-2.9943 8.6524-0.38721 0.45669-0.15566 0.76954-2.0378 1.5395-0.23292 0.0919-0.37636-0.14766-0.49406-0.29767-3.8698 0.3049-3.0401-2.9059-4.717-3.3136-0.23321 0.60102-1.2423 2.8639-2.0933 2.9422 0.0853 0.0786 0.17168 0.16177 0.25701 0.24879-0.16329 0.10607-0.32496 0.21389-0.48496 0.32413 0.0538 0.48023 0.12476 0.27287-0.9849 1.9017-0.12437-0.0381-0.2387-0.0744-0.35072-0.12438 0.024 0.15738 0.0456 0.31751 0.0689 0.47993-0.0414 0.0248-0.12438 0.0734-0.16577 0.0992-0.16006 0.27689-0.34243 0.54139-0.53304 0.79835h-3.9038c-0.0382-0.16673-0.0704-0.33321-0.0971-0.49904-1.3969-0.82968-2.092-2.2987-2.2342-3.0921-0.7766-2.8821-2.3897-2.9603-2.8783-3.2456-0.27966-0.15929-1.5072-1.4257-0.73204 0.88051-0.0878-0.19405-0.16825-0.3888-0.24294-0.58448-0.2056 0.0433-0.47254 0.0279-0.5861 0.24053 0.0372 0.64988 0.55797 1.1672 0.57039 1.8288 0.041 0.80839-0.74942 0.61362-1.0122 0.0475-0.21636-0.36565-0.2446-0.81241-0.4775-1.1657-0.30397-0.10225-2.2057-0.22173-1.6315-2.1521 0.41544-1.3603 0.57555-1.4608 0.50316-1.7824-0.10454-0.10473-1.056-0.99146-1.7517-0.9617-0.47275 1.6294 0.22568 3.2496 0.25454 4.2603-0.0439-0.01-0.13182-0.0311-0.1757-0.0403-0.86387-3.6437-0.20486-2.6489-0.39205-3.8417-0.63245 0.0433-7.1826-1.2079-7.2862-1.2212-27.239-2.7606-25.118-9.302-54.954-13.324-5.5211-1.4405-14.891-2.0961-22.336-7.0773-12.577-7.0674-15.116-18.335-27.054-20.715-0.14517-0.0672-0.24956-0.19077-0.36726-0.29189-0.76679-0.0919-1.4499-0.49315-2.1596-0.77016-0.28516 0.094-0.49903 0.36556-0.82741 0.32825-0.54524-1.3003-0.61289-0.43549-1.4034-0.68233-0.42859-0.12342-0.92605-0.22462-1.1408-0.66408-0.99255 0.0961-3.1635-0.82399-3.5349-0.99064-0.0431-0.0796-0.0847-0.15758-0.12591-0.23382-0.18828-0.01-0.37636-0.0238-0.56293-0.0351-0.00082-0.0393-0.002-0.11942-0.002-0.1591l-0.0322 0.11026c-1.0042-0.42094-0.92792-0.0641-1.4035-0.20809-1.6212-0.50545-0.2809-0.84186-2.666-1.29-0.0206 2.8716-3.1124 51.846-5.7443 52.558-1.3644 0.55816-2.6849 1.6193-2.9082 1.8297-0.64163 0.50152-1.4599 0.71706-2.1057 1.2103-0.45599 0.45194-1.1515 0.56301-1.7666 0.50824-0.0605-0.42775-0.24211-0.83319-0.26113-1.2642 0.1095-0.44686 0.47336-0.78337 0.57534-1.2369-2.3233-0.27689-9.2388 3.8742-9.4764 2.2218 0.17779-0.81821 1.5266-1.2664 1.7119-1.7658-0.81229 0.0134-3.1626 1.0687-4.0157 0.49977-0.16253-0.26522-0.0114-0.55699 0.11274-0.79825 0.37718-0.12019 0.88789-0.14193 1.0188-0.59359-0.31916-0.19486-0.59024-0.62179-0.34234-0.97484 0.65043-0.50927 2.1714-0.21326 2.4846-1.4881 4.4648-2.4404 3.7679-2.6588 6.3038-2.2565 0.68075 0.10435 4.2897-0.57477 4.4625-0.66414 1.2139-0.93361 1.0496-1.4904 1.1573-1.8387 0.48484-1.6088-0.65953-10.256-1.4251-13.58-2.905-13.892 3.2454-9.211-1.6423-33.574-1.0337-9.6369 2.4169-8.9051-0.26942-12.724-0.14345 0.0114-0.28431 0.0269-0.42693 0.0414-0.40356-3.4507 0.52601-3.4553-0.11274-4.0671-0.81272-0.11083-2.09 0.26824-4.4982 0.30511-0.20146 0.52725-0.41037 1.0537-0.71546 1.532-0.0788-0.53893-0.0347-1.1274-0.34742-1.6025-0.00009 0-0.90029 2.4357-0.90029 2.4357 0.0364 0.55877 0.36394 1.0901 0.24046 1.6596-0.0605 0.3639-0.25784 0.69463-0.281 1.0652 0.0423 0.37298 0.24128 0.71126 0.25286 1.091 0.0809 0.6502-0.28338 0.52384 0.68065 2.2384 0.31491 0.59265 0.72095 2.8387 0.67731 4.1408-0.0279 1.1451 0.92906 2.2564-0.0198 4.179-0.0538-0.25696-0.0729-0.51815-0.0921-0.77675-0.83639 0.11789-0.35164 0.67446-0.83567 1.0421-1.0475 0.89754-0.52269 0.83669-2.332 1.091-0.006-0.0754-0.0172-0.22627-0.0215-0.30169-0.44099 0.15986-1.0089 0.27019-1.1722 0.77925-0.20893-0.01-0.41783-0.0227-0.6251-0.0403 0.006-0.39376 0.22629-0.72708 0.33241-1.0927-0.004-0.37712 0.0538-0.75104 0.24542-1.0819 0.11198-0.0816 0.26279-0.13335 0.33322-0.25872 0.15662-0.61517 0.17322-1.2535 0.12591-1.8826 0.004-2.2603 0.77309-5.721 0.94922-6.7075 0.0654-0.33073-0.17149-0.6127-0.21966-0.92679-0.10359-0.3797-0.0496-0.82738-0.33407-1.1358-0.54049-0.65236-0.93267-1.4466-0.97404-2.3047-0.91601-0.186-0.94581-0.68193-1.0346-1.0976-0.11694-0.0527-0.23291-0.1034-0.34906-0.15338 1.119-1.2584 1.9084-1.1195 0.83898-3.297-1.5536-0.75465-0.23931-0.42743-2.3718-0.97658-0.1343 0.0257-0.26944 0.0517-0.40377 0.0774-0.54815-0.3916-0.31814-0.36287-1.1623-0.41205-0.37959-0.57395-0.0319-0.0172-1.2461-0.63418-0.16825 0.063-0.30263 0.21387-0.48578 0.23041-0.29931-0.11274-0.43935-0.42197-0.58031-0.68317-0.37635-0.16902-0.78839-0.26192-1.1922-0.34313-0.0315-0.0269-0.0954-0.0774-0.12686-0.10454-0.33738-0.0217-0.68726-0.0961-0.93764-0.33982-0.21223-0.23123-0.54629-0.17818-0.81985-0.26698-0.16501-0.0393-0.17665-0.23618-0.24874-0.35976-0.28429-0.19239-0.54793-0.41535-0.77185-0.67655-0.2901-0.41371-0.81405-0.51403-1.2203-0.77429-0.14555-0.4821-0.326-1.3548-1.0296-2.5409-0.34545-0.5663 0.0792-0.69577-0.65405-1.0106-0.18657-0.3731-0.40213-0.74194-0.44763-1.1656-0.0389-0.3516-0.3896-0.57209-0.42859-0.92099-0.006-0.2794 0.28266-0.43023 0.36478-0.67409 0.46903-3.0515 0.55682-4.1742 2.0908-5.6538 0.3324-0.46586 0.43437-1.0669 0.83152-1.4922 0.15757-0.16672 0.2595-0.37309 0.33903-0.58532 0.37717-0.20972 0.81155-0.41369 1.0213-0.81075 1.5469-0.82162 2.6272-1.2202 2.6272-1.2202 0.23498-1.2586 0.64837-0.43374 1.0894-0.93103 0.24294-0.24622 0.56459-0.38219 0.90277-0.43603 0.89761-1.3952 2.9974 0.12686 3.9867 0.0217 0.9845-0.13811 2.0496 1.484 3.5855 0.76014 0.18313-0.0941 0.32824 0.094 0.47666 0.17417 0.37886 0.28599 0.88873 0.17245 1.3173 0.31915 0.4957 0.22876 0.86294 0.65651 1.3454 0.90943 0.17073 0.28508 0.32082 0.5877 0.55714 0.82658 0.30509 0.63553 0.82254 0.31627 1.4608 1.2186 0.35154 0.49822 0.92441 0.78679 1.2543 1.3041 0.89306 1.0351 0.24347 0.43818 1.3679 1.0438-0.11598 0.0858-0.23374 0.16978-0.34988 0.2553 0.0822 0.23971 0.31253 0.35161 0.49074 0.50907 0.12514 0.15585 0.14918 0.38632 0.31007 0.51567 0.18409 0.0672 0.42609-0.091 0.57369 0.0857 0.74247 0.74526 0.8642 0.31958 0.7461 1.1466 0.17245 0.30097 0.43934 0.52641 0.75189 0.67395 0.0153 0.0538 0.0481 0.16177 0.0639 0.21552 0.31667 0.17169 0.67979 0.16254 1.0296 0.17742-0.0298 0.0971-0.0605 0.19486-0.0887 0.29352 0.19153 0.34065 0.30509 0.75518 0.66241 0.96741 0.34576 0.2213 0.61104 0.60266 1.0396 0.66581 2.5518 0.37185 2.943-0.48283 3.956-1.3779 0.0753-0.18389 0.0664-0.39614 0.16005-0.57116 0.14174-0.0569 0.29351-0.0838 0.44265-0.12019 0.11866-1.2455 1.9051-0.40098 2.1173-0.81736 0.0647-0.13926 0.0614-0.29685 0.0847-0.44429-1.487-1.6243 1.1612-6.7288 2.2284-8.756 0.0343-0.0299 3.0921-5.2264 3.7098-5.9076 3.4056-3.8466 7.3703-14.745 7.3956-18.267 0.24521-6.0982 5.6111-16.607 4.9914-27.679-0.46777-2.9267-6.304-6.8357-6.4074-6.9387-0.16749-0.15433-0.0738-0.40709-0.0921-0.60516 2.1698-1.3031 3.5634 1.7376 5.4408 1.6572 0.90858-0.32174-0.18161-7.2885 1.1092-7.8581 0.3507-0.21232 0.70379 0.11198 1.0213 0.24208 0.0746-0.27917 0.11102-0.59502 0.32742-0.80808m74.44 134.79c0.33819 1.2206 8.7042 3.483 9.8179 3.4727-0.8219-1.2043-8.2214-3.4684-9.8179-3.4727m46.531 8.5728c-0.25122 0.27607-0.59687 0.56041-0.56293 0.97484 0.99369 0.063 0.64112 0.33403 1.1067 0.47424 1.5528 0.53044 0.9819 0.24239 1.7136 0.40544 0.97001 0.23258 1.4774-3.0374-0.17074-2.8369-0.815-0.0671-1.547 0.41877-2.0867 0.98238m-25.904-0.67893c0.01 0.42651 6.2308 3.0369 6.9338 2.9736 0.97062 0.91252 2.0149 1.2079 2.1687 1.2236 1.9858 0.35016 1.746 0.77925 2.9712 0.86883 1.1048 0.15414 0.89006 1.014 1.493 1.343 0.078 0.0372 1.9436 0.61208 2.0783 0.61094 0.42859-0.39965 0.97902-0.64162 1.5452-0.77605-0.0315-0.11847-0.0382-0.252-0.14345-0.32493-1.0946-0.89705-1.0933-0.5784-1.5694-0.3946-0.1034-0.032-14.088-6.1175-15.477-5.5244m13.4 15.36c0.006 0.34737-0.0414 0.72376 0.12018 1.047 0.17913 0.30263 0.6549 0.38044 0.92275 0.15013-0.054-0.41701 0.0115-0.85716-0.18409-1.2436-0.33271-0.70755 0.16215-1.2444-0.44938-1.4707-0.20809 0.48168-0.42022 0.98166-0.40946 1.5172m1.8106 0.3705c0.0897-0.0929 0.18065-0.18466 0.27271-0.27596-0.11293-0.94001-0.19431-1.1567-0.44679-1.2436-0.16348 0.35026-0.0607 1.221 0.17417 1.5195z"/>
 </g>
</svg>
